<svg xmlns="http://www.w3.org/2000/svg" viewBox="0 0 240 240">
  <title>Yan Flüt Çalan Kurbağa</title>
  <circle cx="120" cy="120" r="112" fill="#EAF6EE"/>
  <ellipse cx="120" cy="207" rx="58" ry="9" fill="#CFE8D7"/>

  <!-- Zambak Tutan Kurbağa ile aynı yumuşak ana gövde -->
  <ellipse cx="120" cy="154" rx="60" ry="49" fill="#8FCBA4"/>
  <ellipse cx="120" cy="169" rx="36" ry="27" fill="#F3FBEF"/>
  <ellipse cx="72" cy="142" rx="17" ry="21" fill="#8FCBA4"/>
  <ellipse cx="168" cy="142" rx="17" ry="21" fill="#8FCBA4"/>
  <path d="M84 139 Q102 122 114 143 L120 151 L126 143 Q138 122 156 139 L154 191 Q137 201 120 188 Q103 201 86 191Z" fill="#617F98"/>
  <path d="M111 139 L120 151 L129 139" fill="#FFF4D8"/>
  <circle cx="120" cy="160" r="4" fill="#E4C36C"/>
  <circle cx="120" cy="177" r="4" fill="#E4C36C"/>

  <circle cx="93" cy="100" r="23" fill="#8FCBA4"/>
  <circle cx="147" cy="100" r="23" fill="#8FCBA4"/>
  <circle cx="93" cy="97" r="9" fill="#182420"/>
  <circle cx="147" cy="97" r="9" fill="#182420"/>
  <circle cx="90" cy="94" r="3" fill="#FFFFFF"/>
  <circle cx="144" cy="94" r="3" fill="#FFFFFF"/>
  <circle cx="80" cy="120" r="7" fill="#F2A0B8" opacity=".55"/>
  <circle cx="160" cy="120" r="7" fill="#F2A0B8" opacity=".55"/>
  <ellipse cx="120" cy="131" rx="9" ry="5" fill="#F3FBEF" stroke="#5E9C77" stroke-width="2.5"/>

  <!-- Kollar ve iki elin arasında açıkça yatay yan flüt -->
  <path d="M69 151 Q86 147 103 160" fill="none" stroke="#8FCBA4" stroke-width="18" stroke-linecap="round"/>
  <path d="M171 151 Q154 147 137 160" fill="none" stroke="#8FCBA4" stroke-width="18" stroke-linecap="round"/>
  <path d="M48 145 H194" fill="none" stroke="#B9C8CF" stroke-width="10" stroke-linecap="round"/>
  <path d="M52 142 H190" fill="none" stroke="#EFF7FA" stroke-width="3.5" stroke-linecap="round" opacity=".9"/>
  <circle cx="48" cy="145" r="8" fill="#91A6B0"/>
  <circle cx="194" cy="145" r="8" fill="#91A6B0"/>
  <g fill="#708791">
    <circle cx="70" cy="145" r="3.5"/>
    <circle cx="92" cy="145" r="3.5"/>
    <circle cx="116" cy="145" r="3.5"/>
    <circle cx="140" cy="145" r="3.5"/>
    <circle cx="164" cy="145" r="3.5"/>
  </g>
  <circle cx="91" cy="151" r="10" fill="#8FCBA4"/>
  <circle cx="149" cy="151" r="10" fill="#8FCBA4"/>

  <ellipse cx="95" cy="203" rx="15" ry="9" fill="#8FCBA4"/>
  <ellipse cx="145" cy="203" rx="15" ry="9" fill="#8FCBA4"/>
  <path d="M184 91 V111 M184 91 Q195 91 199 96" fill="none" stroke="#617F98" stroke-width="4" stroke-linecap="round"/>
  <circle cx="180" cy="113" r="6" fill="#617F98"/>
  <path d="M55 95 V111 M55 95 Q66 95 70 100" fill="none" stroke="#617F98" stroke-width="4" stroke-linecap="round"/>
  <circle cx="51" cy="113" r="6" fill="#617F98"/>
</svg>
