<svg xmlns="http://www.w3.org/2000/svg" viewBox="0 0 240 240">
  <title>Pembe File Binen Kurbağa</title>
  <circle cx="120" cy="120" r="112" fill="#EAF6EE"/>
  <ellipse cx="121" cy="211" rx="79" ry="10" fill="#CFE8D7"/>

  <!-- Başı, kulağı, gövdesi, dört bacağı ve hortumu tamamen görünen pembe fil -->
  <ellipse cx="133" cy="165" rx="65" ry="39" fill="#F2B8CE"/>
  <ellipse cx="146" cy="151" rx="45" ry="22" fill="#F8CADE" opacity=".7"/>
  <rect x="83" y="178" width="20" height="34" rx="10" fill="#ECA7C2"/>
  <rect x="111" y="184" width="20" height="29" rx="10" fill="#F2B8CE"/>
  <rect x="145" y="183" width="20" height="30" rx="10" fill="#ECA7C2"/>
  <rect x="171" y="176" width="20" height="36" rx="10" fill="#F2B8CE"/>
  <ellipse cx="65" cy="155" rx="34" ry="32" fill="#F2B8CE"/>
  <ellipse cx="80" cy="154" rx="22" ry="25" fill="#E89DBA"/>
  <ellipse cx="80" cy="154" rx="12" ry="15" fill="#F7C8DA"/>
  <circle cx="53" cy="146" r="5" fill="#382A32"/>
  <circle cx="51" cy="144" r="1.8" fill="#FFFFFF"/>
  <path d="M43 165 Q27 178 34 197 Q39 209 48 200 Q52 195 47 190" fill="none" stroke="#F2B8CE" stroke-width="17" stroke-linecap="round"/>
  <path d="M43 165 Q29 178 36 193" fill="none" stroke="#FFD9E7" stroke-width="4" stroke-linecap="round" opacity=".7"/>
  <path d="M43 156 Q31 159 28 169 Q38 169 45 164" fill="#FFF2DA"/>
  <path d="M191 149 Q207 142 207 129" fill="none" stroke="#E89DBA" stroke-width="4" stroke-linecap="round"/>
  <path d="M207 129 Q214 134 216 126" fill="none" stroke="#E89DBA" stroke-width="3" stroke-linecap="round"/>

  <!-- Eyer -->
  <path d="M91 126 Q131 113 170 128 L163 146 Q130 137 98 146Z" fill="#D96D98"/>
  <path d="M100 126 Q131 118 161 129" fill="none" stroke="#F7D58A" stroke-width="6" stroke-linecap="round"/>

  <!-- Zambak figürünün küçük, yuvarlak kardeşi olarak binici kurbağa -->
  <g transform="translate(48 19) scale(.6)">
    <ellipse cx="120" cy="152" rx="60" ry="48" fill="#8FCBA4"/>
    <ellipse cx="120" cy="166" rx="36" ry="26" fill="#F3FBEF"/>
    <ellipse cx="72" cy="140" rx="16" ry="20" fill="#8FCBA4"/>
    <ellipse cx="168" cy="140" rx="16" ry="20" fill="#8FCBA4"/>
    <circle cx="93" cy="100" r="23" fill="#8FCBA4"/>
    <circle cx="147" cy="100" r="23" fill="#8FCBA4"/>
    <circle cx="93" cy="97" r="9" fill="#182420"/>
    <circle cx="147" cy="97" r="9" fill="#182420"/>
    <circle cx="90" cy="94" r="3" fill="#FFFFFF"/>
    <circle cx="144" cy="94" r="3" fill="#FFFFFF"/>
    <path d="M104 132 Q120 142 136 132" fill="none" stroke="#5E9C77" stroke-width="3.5" stroke-linecap="round"/>
    <circle cx="80" cy="120" r="7" fill="#F2A0B8" opacity=".55"/>
    <circle cx="160" cy="120" r="7" fill="#F2A0B8" opacity=".55"/>
    <ellipse cx="96" cy="196" rx="14" ry="9" fill="#8FCBA4"/>
    <ellipse cx="144" cy="196" rx="14" ry="9" fill="#8FCBA4"/>
    <path d="M81 78 Q120 50 159 78 L151 91 Q120 75 89 91Z" fill="#F7D58A"/>
    <circle cx="120" cy="64" r="7" fill="#E46E9A"/>
  </g>
  <circle cx="183" cy="75" r="6" fill="#FBD3E0"/>
  <circle cx="199" cy="89" r="4" fill="#F7D58A"/>
</svg>
