<svg xmlns="http://www.w3.org/2000/svg" viewBox="0 0 240 240"><g><circle cx="120" cy="120" r="112" fill="#EAF6EE"/>
    <ellipse cx="120" cy="152" rx="60" ry="48" fill="#8FCBA4"/>
    <ellipse cx="120" cy="166" rx="36" ry="26" fill="#F3FBEF"/>
    <ellipse cx="72" cy="140" rx="16" ry="20" fill="#8FCBA4"/>
    <ellipse cx="168" cy="140" rx="16" ry="20" fill="#8FCBA4"/>
    <circle cx="93" cy="100" r="23" fill="#8FCBA4"/>
    <circle cx="147" cy="100" r="23" fill="#8FCBA4"/>
    <circle cx="93" cy="97" r="9" fill="#182420"/>
    <circle cx="147" cy="97" r="9" fill="#182420"/>
    <circle cx="90" cy="94" r="3" fill="#ffffff"/>
    <circle cx="144" cy="94" r="3" fill="#ffffff"/>
    <path d="M 104 132 Q 120 142 136 132" fill="none" stroke="#5E9C77" stroke-width="3.5" stroke-linecap="round"/>
    <circle cx="80" cy="120" r="7" fill="#F2A0B8" opacity="0.55"/>
    <circle cx="160" cy="120" r="7" fill="#F2A0B8" opacity="0.55"/>
    <ellipse cx="96" cy="196" rx="14" ry="9" fill="#8FCBA4"/>
    <ellipse cx="144" cy="196" rx="14" ry="9" fill="#8FCBA4"/><g transform="translate(168,118) scale(1.1)">
    <circle cx="-10" cy="0" r="8.5" fill="#FBD3E0"/>
    <circle cx="10" cy="0" r="8.5" fill="#FBD3E0"/>
    <circle cx="0" cy="-10" r="8.5" fill="#FBD3E0"/>
    <circle cx="0" cy="9" r="8.5" fill="#FBD3E0"/>
    <circle cx="0" cy="0" r="6.5" fill="#FFFFFF"/></g></g></svg>
