<svg xmlns="http://www.w3.org/2000/svg" viewBox="0 0 240 240">
  <title>Tur Rehberi Kurbağa</title>
  <circle cx="120" cy="120" r="112" fill="#EAF6EE"/>
  <ellipse cx="120" cy="207" rx="60" ry="9" fill="#CFE8D7"/>

  <!-- Zambak Tutan Kurbağa ile aynı yumuşak ana gövde -->
  <ellipse cx="120" cy="153" rx="60" ry="49" fill="#8FCBA4"/>
  <ellipse cx="120" cy="168" rx="36" ry="27" fill="#F3FBEF"/>
  <ellipse cx="72" cy="142" rx="17" ry="21" fill="#8FCBA4"/>
  <ellipse cx="168" cy="142" rx="17" ry="21" fill="#8FCBA4"/>
  <path d="M83 136 Q99 122 111 139 L120 151 L129 139 Q141 122 157 136 L155 190 Q137 199 120 187 Q103 199 85 190Z" fill="#E4C47F"/>
  <path d="M112 139 V188 M128 139 V188" stroke="#C49B55" stroke-width="3" opacity=".75"/>

  <circle cx="93" cy="100" r="23" fill="#8FCBA4"/>
  <circle cx="147" cy="100" r="23" fill="#8FCBA4"/>
  <circle cx="93" cy="97" r="9" fill="#182420"/>
  <circle cx="147" cy="97" r="9" fill="#182420"/>
  <circle cx="90" cy="94" r="3" fill="#FFFFFF"/>
  <circle cx="144" cy="94" r="3" fill="#FFFFFF"/>
  <path d="M104 132 Q120 142 136 132" fill="none" stroke="#5E9C77" stroke-width="3.5" stroke-linecap="round"/>
  <circle cx="80" cy="120" r="7" fill="#F2A0B8" opacity=".55"/>
  <circle cx="160" cy="120" r="7" fill="#F2A0B8" opacity=".55"/>

  <!-- Rehber şapkası -->
  <path d="M78 80 Q86 54 120 52 Q154 54 162 80Z" fill="#5C83A6"/>
  <ellipse cx="120" cy="80" rx="49" ry="8" fill="#456E92"/>
  <rect x="112" y="59" width="16" height="13" rx="4" fill="#FFF3CF"/>

  <!-- Tam görünen küçük rehber bayrağı -->
  <path d="M190 59 V179" fill="none" stroke="#806646" stroke-width="4" stroke-linecap="round"/>
  <path d="M190 61 Q208 62 220 70 V95 Q207 87 190 86Z" fill="#E86A6A"/>
  <path d="M197 70 Q207 72 214 76" fill="none" stroke="#FFF3CF" stroke-width="4" stroke-linecap="round"/>

  <!-- Kokart -->
  <circle cx="149" cy="149" r="10" fill="#E96F7D"/>
  <circle cx="149" cy="149" r="5" fill="#FFF3CF"/>
  <path d="M144 157 L145 172 L151 166 L156 172 L154 157" fill="#E96F7D"/>

  <!-- İki eliyle tuttuğu açık rota haritası -->
  <ellipse cx="78" cy="173" rx="14" ry="12" fill="#8FCBA4"/>
  <ellipse cx="162" cy="173" rx="14" ry="12" fill="#8FCBA4"/>
  <path d="M65 158 L101 165 L120 157 L139 165 L175 158 V202 L139 195 L120 203 L101 195 L65 202Z" fill="#FFF3CF" stroke="#C9A76D" stroke-width="3" stroke-linejoin="round"/>
  <path d="M101 165 V195 M120 157 V203 M139 165 V195" fill="none" stroke="#D8BF8E" stroke-width="2"/>
  <path d="M75 177 Q92 167 106 182 T132 180 T164 174" fill="none" stroke="#5C83A6" stroke-width="3" stroke-linecap="round"/>
  <circle cx="124" cy="181" r="5" fill="#E86A6A"/>
  <ellipse cx="95" cy="204" rx="15" ry="9" fill="#8FCBA4"/>
  <ellipse cx="145" cy="204" rx="15" ry="9" fill="#8FCBA4"/>
</svg>
