<svg xmlns="http://www.w3.org/2000/svg" viewBox="0 0 240 240" stroke-linecap="round" stroke-linejoin="round">
  <title>Palace Cat</title>
  <defs>
    <linearGradient id="cat-fur" x1="0" y1="0" x2="1" y2="1">
      <stop offset="0" stop-color="#FFF9E9"/>
      <stop offset=".58" stop-color="#ECDDBE"/>
      <stop offset="1" stop-color="#D3BC91"/>
    </linearGradient>
    <linearGradient id="cat-gold" x1="0" y1="0" x2="1" y2="1">
      <stop offset="0" stop-color="#FFE49A"/>
      <stop offset=".55" stop-color="#E3B64C"/>
      <stop offset="1" stop-color="#B77B27"/>
    </linearGradient>
  </defs>

  <circle cx="120" cy="120" r="112" fill="#FBF3E5"/>
  <ellipse cx="120" cy="205" rx="64" ry="10" fill="#D8C6AE" opacity=".52"/>

  <!-- curled tail behind the seated figure -->
  <path d="M153 146 Q184 138 191 164 Q198 191 177 202 Q158 208 143 196 Q137 184 148 177 Q159 173 165 184 Q169 189 175 184 Q182 176 177 167 Q171 158 158 164Z" fill="#D9C39A" stroke="#806D59" stroke-width="3" stroke-linejoin="round"/>
  <path d="M164 151 Q182 151 185 168" fill="none" stroke="#F6EBD5" stroke-width="3" stroke-linecap="round" opacity=".72"/>

  <!-- soft cream seated body and paws -->
  <path d="M83 130 Q96 116 120 116 Q145 116 157 130 Q168 151 167 185 Q161 202 145 205 Q131 207 120 196 Q109 207 95 205 Q79 202 73 185 Q72 151 83 130Z" fill="url(#cat-fur)" stroke="#806D59" stroke-width="3" stroke-linejoin="round"/>
  <ellipse cx="98" cy="193" rx="23" ry="16" fill="#FFF8E7" stroke="#806D59" stroke-width="2.8"/>
  <ellipse cx="142" cy="193" rx="23" ry="16" fill="#E2CCAA" stroke="#806D59" stroke-width="2.8"/>
  <path d="M88 194 Q98 189 108 194 M132 194 Q142 189 152 194" fill="none" stroke="#B49C78" stroke-width="2.4" stroke-linecap="round"/>
  <path d="M120 136 V194" fill="none" stroke="#C7AF87" stroke-width="2.5" stroke-linecap="round" opacity=".78"/>
  <path d="M88 142 Q82 158 85 176 M152 142 Q158 158 155 176" fill="none" stroke="#FFFDF5" stroke-width="3" stroke-linecap="round" opacity=".6"/>

  <!-- large collectible cat head and ears -->
  <path d="M82 85 Q78 65 88 51 L105 66 Q120 59 135 66 L152 51 Q162 66 158 85 V112 Q157 130 143 140 Q133 148 120 148 Q107 148 97 140 Q83 130 82 112Z" fill="url(#cat-fur)" stroke="#806D59" stroke-width="3" stroke-linejoin="round"/>
  <path d="M88 58 L103 70 Q92 72 85 82Z" fill="#EAAFA4"/>
  <path d="M152 58 L137 70 Q148 72 155 82Z" fill="#EAAFA4"/>
  <path d="M87 60 Q92 55 98 67 M153 60 Q148 55 142 67" fill="none" stroke="#FFF9E9" stroke-width="2.8" stroke-linecap="round"/>
  <path d="M89 89 Q100 78 112 85 M151 89 Q140 78 128 85" fill="none" stroke="#C3AA80" stroke-width="2.5" stroke-linecap="round"/>
  <path d="M100 97 Q108 89 116 97 Q108 109 100 97Z" fill="#2E8B68" stroke="#275343" stroke-width="2.5" stroke-linejoin="round"/>
  <path d="M124 97 Q132 89 140 97 Q132 109 124 97Z" fill="#2E8B68" stroke="#275343" stroke-width="2.5" stroke-linejoin="round"/>
  <ellipse cx="108" cy="97" rx="2.3" ry="6" fill="#19362F"/>
  <ellipse cx="132" cy="97" rx="2.3" ry="6" fill="#19362F"/>
  <circle cx="105" cy="94" r="2.2" fill="#FFFFFF"/>
  <circle cx="129" cy="94" r="2.2" fill="#FFFFFF"/>
  <ellipse cx="96" cy="115" rx="7" ry="4.5" fill="#EEA5A5" opacity=".46"/>
  <ellipse cx="144" cy="115" rx="7" ry="4.5" fill="#EEA5A5" opacity=".46"/>
  <path d="M113 110 Q120 105 127 110 Q124 118 120 118 Q116 118 113 110Z" fill="#B46F74" stroke="#765052" stroke-width="2.2"/>
  <path d="M120 118 V123 M120 123 Q113 130 107 125 M120 123 Q127 130 133 125" fill="none" stroke="#6C5149" stroke-width="2.5" stroke-linecap="round"/>
  <path d="M98 116 H70 M98 124 H66 M142 116 H170 M142 124 H174" fill="none" stroke="#9B856A" stroke-width="2.3" stroke-linecap="round"/>
  <ellipse cx="99" cy="77" rx="13" ry="7" fill="#FFFFFF" opacity=".45" transform="rotate(-24 99 77)"/>

  <!-- tiny crown and gemstone collar -->
  <path d="M92 71 Q94 56 99 49 L109 60 L120 39 L131 60 L142 49 Q147 57 148 71Z" fill="url(#cat-gold)" stroke="#8B632D" stroke-width="3" stroke-linejoin="round"/>
  <path d="M94 68 Q120 74 146 68 L145 77 Q120 82 95 77Z" fill="#8F2947" stroke="#693143" stroke-width="2.7"/>
  <circle cx="105" cy="69" r="3.8" fill="#2E8B68"/>
  <circle cx="120" cy="68" r="4.4" fill="#C94055"/>
  <circle cx="135" cy="69" r="3.8" fill="#2E8B68"/>
  <path d="M86 137 Q120 150 154 137 L150 158 Q120 171 90 158Z" fill="#8F2947" stroke="#693143" stroke-width="3" stroke-linejoin="round"/>
  <path d="M91 141 Q120 151 149 141" fill="none" stroke="url(#cat-gold)" stroke-width="3.5" stroke-linecap="round"/>
  <path d="M108 151 Q120 143 132 151 L130 167 Q120 179 110 167Z" fill="#2A8A6B" stroke="#1D5B4B" stroke-width="2.8" stroke-linejoin="round"/>
  <path d="M113 153 Q120 149 126 153 L124 163 Q120 168 116 163Z" fill="#75C7A7"/>
  <circle cx="120" cy="153" r="3" fill="#FFF1B6"/>
</svg>
