<svg xmlns="http://www.w3.org/2000/svg" viewBox="0 0 200 280">
  <title>Topkapı Treasures premium egg capsule</title>
  <defs>
    <linearGradient id="shell" x1="18%" y1="8%" x2="82%" y2="92%">
      <stop offset="0" stop-color="#40577E"/>
      <stop offset=".46" stop-color="#1B2A4A"/>
      <stop offset="1" stop-color="#0C172D"/>
    </linearGradient>
    <radialGradient id="shine" cx="28%" cy="20%" r="72%">
      <stop offset="0" stop-color="#FFFFFF" stop-opacity=".9"/>
      <stop offset=".34" stop-color="#FFFFFF" stop-opacity=".27"/>
      <stop offset="1" stop-color="#FFFFFF" stop-opacity="0"/>
    </radialGradient>
    <linearGradient id="rim" x1="0" y1="0" x2="0" y2="1">
      <stop offset="0" stop-color="#FFF0B0" stop-opacity=".68"/>
      <stop offset="1" stop-color="#050B18" stop-opacity=".65"/>
    </linearGradient>
    <filter id="shadow" x="-30%" y="-80%" width="160%" height="260%"><feGaussianBlur stdDeviation="5"/></filter>
    <clipPath id="eggClip"><path d="M100 14C63 14 39 55 27 116C11 195 45 255 100 255s89-60 73-139C161 55 137 14 100 14Z"/></clipPath>
  </defs>
  <ellipse cx="100" cy="257" rx="58" ry="10" fill="#061022" opacity=".3" filter="url(#shadow)"/>
  <path d="M100 14C63 14 39 55 27 116C11 195 45 255 100 255s89-60 73-139C161 55 137 14 100 14Z" fill="url(#shell)"/>
  <g clip-path="url(#eggClip)">
    <ellipse cx="67" cy="77" rx="55" ry="80" fill="url(#shine)"/>
    <path d="M26 151Q100 165 174 151V166Q100 179 26 165Z" fill="#D4AF37" opacity=".3"/>
    <!-- Osmanlı lalesi, hilal ve saray arabeski -->
    <g transform="translate(100 101)">
      <path d="M0 37V1" stroke="#D4AF37" stroke-width="4" stroke-linecap="round"/>
      <path d="M0 8C-25-6-27-32-13-41C-8-21-2-15 0 8Z" fill="#D4AF37"/>
      <path d="M0 8C25-6 27-32 13-41C8-21 2-15 0 8Z" fill="#EACD6A"/>
      <path d="M0 0C-9-17-5-36 0-46C5-36 9-17 0 0Z" fill="#7A2036"/>
      <path d="M-3 28C-16 18-24 22-29 31C-17 28-9 31-3 38M3 25C17 15 25 19 31 28C18 25 10 29 3 37" fill="none" stroke="#2FB6A6" stroke-width="3" stroke-linecap="round"/>
    </g>
    <path d="M53 190A16 16 0 1 0 53 218A13 13 0 1 1 53 190Z" fill="#EACD6A"/>
    <circle cx="147" cy="203" r="6" fill="#2FB6A6"/>
    <path d="M136 202Q147 188 158 202Q147 216 136 202Z" fill="none" stroke="#D4AF37" stroke-width="3"/>
  </g>
  <path d="M25 151Q100 165 175 151" fill="none" stroke="#F5D76E" stroke-width="5" opacity=".95"/>
  <path d="M27 157Q100 171 173 157" fill="none" stroke="#8E7120" stroke-width="2" opacity=".65"/>
  <path d="M69 38C49 68 39 112 40 151C41 174 47 190 54 202" fill="none" stroke="#FFFFFF" stroke-width="11" stroke-linecap="round" opacity=".36"/>
  <ellipse cx="74" cy="49" rx="13" ry="7" fill="#FFFFFF" opacity=".58" transform="rotate(-28 74 49)"/>
  <path d="M100 14C63 14 39 55 27 116C11 195 45 255 100 255s89-60 73-139C161 55 137 14 100 14Z" fill="none" stroke="url(#rim)" stroke-width="3"/>
</svg>
