<svg xmlns="http://www.w3.org/2000/svg" viewBox="0 0 240 240" stroke-linecap="round" stroke-linejoin="round">
  <title>Treasury Keeper</title>
  <defs>
    <linearGradient id="keeper-navy" x1="0" y1="0" x2="1" y2="1">
      <stop offset="0" stop-color="#385A82"/>
      <stop offset=".55" stop-color="#203D63"/>
      <stop offset="1" stop-color="#142B4B"/>
    </linearGradient>
    <linearGradient id="keeper-gold" x1="0" y1="0" x2="1" y2="1">
      <stop offset="0" stop-color="#FFE294"/>
      <stop offset=".55" stop-color="#E2B348"/>
      <stop offset="1" stop-color="#B77B26"/>
    </linearGradient>
  </defs>

  <circle cx="120" cy="120" r="112" fill="#FBF3E5"/>
  <ellipse cx="120" cy="205" rx="66" ry="10" fill="#D8C6AE" opacity=".52"/>

  <!-- boots and navy ceremonial uniform -->
  <path d="M76 188 Q93 184 108 192 L106 204 Q89 208 68 204 Q68 196 76 188Z" fill="#18263B"/>
  <path d="M132 192 Q148 184 164 188 Q173 196 171 204 Q151 208 134 204Z" fill="#18263B"/>
  <path d="M80 127 Q94 115 108 113 H134 Q149 115 161 128 Q168 157 170 195 Q147 204 120 195 Q92 204 69 195 Q72 156 80 127Z" fill="url(#keeper-navy)" stroke="#3F3D43" stroke-width="3" stroke-linejoin="round"/>
  <path d="M82 128 Q68 132 57 147 Q50 161 54 180 Q63 188 76 181 L92 150Z" fill="#2A496F" stroke="#3F3D43" stroke-width="3" stroke-linejoin="round"/>
  <path d="M158 128 Q171 132 182 147 Q189 161 185 180 Q176 188 163 181 L148 150Z" fill="#183553" stroke="#3F3D43" stroke-width="3" stroke-linejoin="round"/>
  <path d="M97 116 Q106 130 120 139 Q134 130 143 116 L151 137 Q138 150 120 157 Q102 150 89 137Z" fill="#8F2946" stroke="#663344" stroke-width="2.8" stroke-linejoin="round"/>
  <path d="M115 151 Q120 147 125 151 L129 194 Q120 199 111 194Z" fill="url(#keeper-gold)"/>
  <path d="M80 151 Q92 157 101 169 M160 151 Q148 157 139 169" fill="none" stroke="#E5B648" stroke-width="3" stroke-linecap="round"/>
  <path d="M85 177 Q99 184 109 190 M155 177 Q141 184 131 190" fill="none" stroke="#C78C2A" stroke-width="2.5" stroke-linecap="round"/>
  <circle cx="120" cy="166" r="4.4" fill="#F7D77C"/>
  <circle cx="120" cy="181" r="4.4" fill="#F7D77C"/>
  <path d="M85 130 Q90 126 97 123" fill="none" stroke="#7896B8" stroke-width="3" stroke-linecap="round" opacity=".66"/>

  <!-- face and tidy moustache -->
  <path d="M89 79 Q90 63 103 57 Q120 49 137 58 Q151 65 151 82 V106 Q150 122 136 134 Q128 141 120 141 Q111 141 103 134 Q89 122 89 106Z" fill="#46302B"/>
  <path d="M95 78 Q99 65 120 63 Q141 65 145 78 V105 Q145 120 134 130 Q127 136 120 136 Q112 136 105 130 Q95 120 95 105Z" fill="#E6BA93" stroke="#67453A" stroke-width="3"/>
  <ellipse cx="107" cy="99" rx="6.4" ry="7.3" fill="#34443E"/>
  <ellipse cx="133" cy="99" rx="6.4" ry="7.3" fill="#34443E"/>
  <circle cx="105" cy="96.5" r="2.2" fill="#FFFFFF"/>
  <circle cx="131" cy="96.5" r="2.2" fill="#FFFFFF"/>
  <path d="M100 90 Q107 86 114 89 M126 89 Q133 86 140 90" fill="none" stroke="#53342E" stroke-width="3" stroke-linecap="round"/>
  <ellipse cx="101" cy="112" rx="7" ry="4.5" fill="#DC8E88" opacity=".46"/>
  <ellipse cx="139" cy="112" rx="7" ry="4.5" fill="#DC8E88" opacity=".46"/>
  <path d="M106 114 Q114 109 120 116 Q126 109 134 114 Q131 120 124 121 Q120 125 116 121 Q109 120 106 114Z" fill="#483029"/>
  <path d="M112 127 Q120 131 128 127" fill="none" stroke="#9B5C4E" stroke-width="2.5" stroke-linecap="round"/>
  <ellipse cx="107" cy="76" rx="12" ry="6" fill="#F9D7B9" opacity=".42" transform="rotate(-18 107 76)"/>

  <!-- distinctive treasury headwear and soft plume -->
  <path d="M91 79 Q89 64 95 55 L98 43 Q109 37 121 42 Q134 37 143 45 L148 57 Q153 66 149 80 Q120 87 91 79Z" fill="#25456C" stroke="#3F3D43" stroke-width="3" stroke-linejoin="round"/>
  <path d="M98 56 Q120 49 145 58 M98 45 Q112 50 122 42 Q133 51 143 46" fill="none" stroke="#55769B" stroke-width="2.7" stroke-linecap="round"/>
  <path d="M90 75 Q119 82 150 75 L149 85 Q120 91 91 85Z" fill="url(#keeper-gold)" stroke="#8A6128" stroke-width="2.8"/>
  <path d="M114 75 Q120 68 127 75 L126 85 Q120 89 114 85Z" fill="#268569"/>
  <circle cx="120" cy="79" r="3.3" fill="#FFF1BD"/>
  <path d="M140 47 Q150 35 160 39 Q158 49 146 54" fill="#E4B74B" stroke="#8A6128" stroke-width="2.5" stroke-linecap="round"/>
  <path d="M158 39 Q164 44 160 51 Q153 48 149 43" fill="#F4D36D" stroke="#8A6128" stroke-width="2.5" stroke-linejoin="round"/>

  <!-- ceremonial key -->
  <path d="M176 124 Q189 124 191 137 Q191 148 181 152 V189" fill="none" stroke="#C78D2D" stroke-width="3.5" stroke-linecap="round" stroke-linejoin="round"/>
  <circle cx="178" cy="138" r="13" fill="none" stroke="url(#keeper-gold)" stroke-width="3.5"/>
  <path d="M181 187 H193 M181 179 H188" fill="none" stroke="#C78D2D" stroke-width="3.5" stroke-linecap="round"/>
  <ellipse cx="172" cy="129" rx="3.5" ry="6" fill="#FFF2B5" opacity=".72" transform="rotate(45 172 129)"/>

  <!-- gloved hands and jeweled treasure chest -->
  <ellipse cx="68" cy="172" rx="11" ry="9" fill="#FFF8E8" stroke="#756556" stroke-width="2.7"/>
  <ellipse cx="156" cy="172" rx="11" ry="9" fill="#FFF8E8" stroke="#756556" stroke-width="2.7"/>
  <path d="M64 161 Q69 146 82 142 H137 Q150 146 155 161Z" fill="#864139" stroke="#643A35" stroke-width="3"/>
  <path d="M71 159 Q76 151 86 149 H132 Q142 151 148 159" fill="none" stroke="#C47259" stroke-width="3" stroke-linecap="round"/>
  <path d="M59 159 Q109 153 159 159 V200 Q109 207 59 200Z" fill="#7C3833" stroke="#5E3834" stroke-width="3" stroke-linejoin="round"/>
  <path d="M67 168 Q109 164 151 168 V192 Q109 198 67 192Z" fill="#A65143"/>
  <path d="M59 161 Q109 155 159 161 M62 194 Q109 201 156 194 M78 159 V199 M140 159 V199" fill="none" stroke="url(#keeper-gold)" stroke-width="3.5" stroke-linejoin="round"/>
  <path d="M100 167 Q110 164 120 167 V187 Q110 192 100 187Z" fill="#25876A" stroke="#164F45" stroke-width="2.7"/>
  <circle cx="110" cy="176" r="4.2" fill="#F8D473"/>
  <path d="M71 169 Q87 166 96 168" fill="none" stroke="#E88969" stroke-width="2.7" stroke-linecap="round" opacity=".75"/>
</svg>
