<svg xmlns="http://www.w3.org/2000/svg" viewBox="0 0 300 120">
  <title>Shells &amp; Stones premium mystery capsule lineup</title>
  <defs>
    <linearGradient id="mini" x1="0" y1="0" x2="1" y2="1"><stop stop-color="#B6EDE7"/><stop offset="1" stop-color="#237D82"/></linearGradient>
    <symbol id="egg" viewBox="0 0 48 82">
      <ellipse cx="24" cy="77" rx="16" ry="3" fill="#0B4E55" opacity=".25"/>
      <path d="M24 3C13 3 7 16 4 34C0 60 9 76 24 76S48 60 44 34C41 16 35 3 24 3Z" fill="url(#mini)"/>
      <path d="M8 45Q24 49 40 45" fill="none" stroke="#E8FFFB" stroke-width="2"/>
      <path d="M14 12Q8 26 9 40" fill="none" stroke="#FFF" stroke-width="4" stroke-linecap="round" opacity=".38"/>
      <path d="M14 34Q16 22 24 18Q32 22 34 34Q28 30 24 37Q20 30 14 34Z" fill="#F6BCD0"/>
      <circle cx="24" cy="35" r="5" fill="#FFF9E9"/>
    </symbol>
  </defs>
  <rect x="3" y="8" width="294" height="104" rx="28" fill="#E7F7F4"/>
  <rect x="9" y="14" width="282" height="92" rx="23" fill="none" stroke="#55B8B4" stroke-width="2" opacity=".75"/>
  <path d="M26 26H274" stroke="#FFF" stroke-width="4" stroke-linecap="round" opacity=".7"/>
  <use href="#egg" x="12" y="19" width="48" height="82"/><use href="#egg" x="69" y="19" width="48" height="82"/>
  <use href="#egg" x="126" y="19" width="48" height="82"/><use href="#egg" x="183" y="19" width="48" height="82"/>
  <use href="#egg" x="240" y="19" width="48" height="82"/>
</svg>
