<svg xmlns="http://www.w3.org/2000/svg" viewBox="0 0 240 240">
  <title>Green Light</title>
  <defs>
    <radialGradient id="greenHalo" cx="50%" cy="45%" r="55%">
      <stop offset="0" stop-color="#E9FFF0" stop-opacity=".95"/>
      <stop offset=".45" stop-color="#9DFFBC" stop-opacity=".62"/>
      <stop offset="1" stop-color="#75ED9D" stop-opacity="0"/>
    </radialGradient>
    <linearGradient id="lanternGlass" x1="0" y1="0" x2="1" y2="1">
      <stop offset="0" stop-color="#F3FFF5"/>
      <stop offset=".45" stop-color="#AEFFC5"/>
      <stop offset="1" stop-color="#51D984"/>
    </linearGradient>
    <linearGradient id="keeperCoat" x1="0" y1="0" x2="0" y2="1">
      <stop offset="0" stop-color="#438D76"/>
      <stop offset="1" stop-color="#1F5D53"/>
    </linearGradient>
  </defs>
  <circle cx="120" cy="120" r="112" fill="#E9F7F3"/>
  <circle cx="120" cy="119" r="100" fill="url(#greenHalo)"/>
  <circle cx="68" cy="65" r="6" fill="#FFFFFF" opacity=".48"/>
  <circle cx="183" cy="78" r="7" fill="none" stroke="#B9DED5" stroke-width="2.5" opacity=".8"/>
  <ellipse cx="120" cy="202" rx="68" ry="10" fill="#1D5B50" opacity=".19"/>
  <g stroke="#214D49" stroke-width="3" stroke-linecap="round" stroke-linejoin="round">
    <path d="M95 54C99 42 108 36 120 36C132 36 141 42 145 54" fill="#E8CA77" stroke="#8D7040"/>
    <path d="M101 47C106 40 112 38 120 38" fill="none" stroke="#FFF0AF" opacity=".85"/>
    <path d="M86 60C86 54 91 50 97 50H143C149 50 154 54 154 60V66H86Z" fill="#D6B45E" stroke="#8D7040"/>
    <path d="M89 64H151L158 82L153 116C143 127 132 132 120 132C108 132 97 127 87 116L82 82Z" fill="#2D6D60"/>
    <path d="M94 68H146L150 83L146 108C138 117 130 121 120 121C110 121 102 117 94 108L90 83Z" fill="url(#lanternGlass)" stroke="#3B8C68"/>
    <path d="M97 73C102 69 109 67 117 67" fill="none" stroke="#FFFFFF" stroke-width="3.5" opacity=".92"/>
    <path d="M104 68L101 112M136 68L139 112" fill="none" stroke="#70E59B" opacity=".72"/>
    <path d="M90 87H150" fill="none" stroke="#39845F"/>
    <ellipse cx="108" cy="95" rx="4.4" ry="5.8" fill="#183E37" stroke="none"/>
    <ellipse cx="132" cy="95" rx="4.4" ry="5.8" fill="#183E37" stroke="none"/>
    <circle cx="106.5" cy="93" r="1.5" fill="#FFFFFF" stroke="none"/>
    <circle cx="130.5" cy="93" r="1.5" fill="#FFFFFF" stroke="none"/>
    <ellipse cx="99" cy="107" rx="5.5" ry="3" fill="#A8E9B7" opacity=".72" stroke="none"/>
    <ellipse cx="141" cy="107" rx="5.5" ry="3" fill="#A8E9B7" opacity=".72" stroke="none"/>
    <path d="M112 107C117 112 123 112 128 107" fill="none" stroke="#2C7355"/>
    <path d="M81 122C93 116 106 113 120 113C134 113 147 116 159 122C168 145 175 169 178 197C159 204 140 208 120 208C100 208 81 204 62 197C65 169 72 145 81 122Z" fill="url(#keeperCoat)"/>
    <path d="M82 122C95 132 107 137 120 138C133 137 145 132 158 122" fill="none" stroke="#76B8A2"/>
    <path d="M88 131L103 156L92 194M152 131L137 156L148 194" fill="none" stroke="#76B8A2" opacity=".72"/>
    <path d="M76 140C64 138 55 145 52 159C55 171 65 178 77 174L99 158" fill="#347565"/>
    <path d="M164 140C176 138 185 145 188 159C185 171 175 178 163 174L141 158" fill="#347565"/>
    <circle cx="120" cy="164" r="31" fill="#74F59A" opacity=".25" stroke="none"/>
    <circle cx="120" cy="164" r="20" fill="#A6FFC0" stroke="#3EBE70"/>
    <circle cx="120" cy="164" r="12" fill="#EFFFF0" stroke="#66DB8B"/>
    <ellipse cx="113" cy="156" rx="5" ry="7" fill="#FFFFFF" opacity=".9" stroke="none"/>
    <path d="M99 159C104 154 110 151 115 151M141 159C136 154 130 151 125 151" fill="none" stroke="#8CEBAB"/>
    <path d="M69 190C80 184 91 185 101 193M139 193C149 185 160 184 171 190" fill="none" stroke="#8BC6AF"/>
    <path d="M48 184C52 171 59 165 69 164C67 176 62 185 54 192Z" fill="#F0C7A0" stroke="#9D704C"/>
    <path d="M53 184C58 181 62 176 66 169M57 188C62 184 66 180 68 176" fill="none" stroke="#D69F74"/>
    <path d="M176 184C181 174 187 169 196 168C195 179 190 188 181 194Z" fill="#C9D7CF" stroke="#6B8179"/>
    <path d="M181 187C186 182 190 177 192 172" fill="none" stroke="#EDF8F1"/>
    <path d="M178 127C183 123 190 126 190 132C190 138 184 141 179 138C175 143 175 149 179 153L190 164" fill="none" stroke="#C59C55" stroke-width="3.5"/>
    <path d="M190 164L185 171M190 164L198 165" fill="none" stroke="#C59C55" stroke-width="3.5"/>
  </g>
  <path d="M46 108C46 100 51 95 59 95C51 95 46 90 46 82C46 90 41 95 33 95C41 95 46 100 46 108Z" fill="#FFFFFF" opacity=".95"/>
  <path d="M191 110C191 104 195 100 201 100C195 100 191 96 191 90C191 96 187 100 181 100C187 100 191 104 191 110Z" fill="#C9FFD8" opacity=".95"/>
</svg>
